<?xml version="1.0" encoding="utf-8"?>
<!-- Generator: Adobe Illustrator 24.1.1, SVG Export Plug-In . SVG Version: 6.00 Build 0)  -->
<svg version="1.1" id="Layer_1" xmlns="http://www.w3.org/2000/svg" xmlns:xlink="http://www.w3.org/1999/xlink" x="0px" y="0px"
	 viewBox="0 0 40 28" style="enable-background:new 0 0 40 28;" xml:space="preserve">
<style type="text/css">
	.st0{fill:#FF8726;}
</style>
<path class="st0" d="M34.9,12.4C36.1,5.9,31.1,0,24.6,0c-3.8,0-7.1,2-9,5.1c-2.5-0.8-5.1-0.5-7.3,1c-2.1,1.5-3.4,3.8-3.5,6.4
	C1.9,13.8,0,16.7,0,19.8c0,0.5,0.1,1.1,0.2,1.6c0.8,3.8,4.1,6.6,8,6.6h23.4c4.5,0,8.2-3.7,8.2-8.2C39.8,16.6,37.9,13.7,34.9,12.4z
	 M31.6,25.7H8.2c-3.2,0-5.8-2.6-5.8-5.8c0-2.4,1.6-4.6,4-5.5l0.8-0.3l-0.1-0.9C7,11.1,7.9,9.2,9.6,8c1.8-1.2,4-1.3,6-0.4l1.1,0.5
	l0.5-1c1.3-2.9,4.2-4.7,7.4-4.7c4.5,0,8.2,3.7,8.2,8.2c0,1.3-0.3,2.1-0.6,3.2c0.9,0.5,1,0.5,1.3,0.6c2.4,0.8,4,3,4,5.5
	C37.5,23,34.8,25.7,31.6,25.7z"/>
</svg>
