<?xml version="1.0" encoding="utf-8"?>
<!-- Generator: Adobe Illustrator 24.1.1, SVG Export Plug-In . SVG Version: 6.00 Build 0)  -->
<svg version="1.1" id="Layer_1" xmlns="http://www.w3.org/2000/svg" xmlns:xlink="http://www.w3.org/1999/xlink" x="0px" y="0px"
	 viewBox="0 0 78.1 115.3" style="enable-background:new 0 0 78.1 115.3;" xml:space="preserve">
<style type="text/css">
	.st0{fill:none;stroke:#FF8726;stroke-width:3;}
	.st1{fill:#FF8726;}
</style>
<circle class="st0" cx="39.1" cy="39.3" r="37.6"/>
<path class="st1" d="M20.5,112.6c-1.7,1.8-3.9,2.8-6.6,2.8s-4.9-0.9-6.6-2.7c-1.7-1.8-2.6-4-2.6-6.6c0-2.6,0.9-4.8,2.6-6.6
	c1.7-1.8,3.9-2.8,6.6-2.8s4.9,0.9,6.6,2.7c1.7,1.8,2.6,4,2.6,6.6C23.1,108.5,22.2,110.7,20.5,112.6z M8.8,111.3
	c1.3,1.4,3,2.2,5.1,2.2s3.7-0.7,5.1-2.2c1.3-1.4,2-3.2,2-5.3c0-2.1-0.7-3.9-2-5.3c-1.3-1.4-3-2.2-5.1-2.2c-2,0-3.7,0.7-5.1,2.2
	c-1.3,1.4-2,3.2-2,5.3C6.8,108.1,7.5,109.8,8.8,111.3z M34.8,115v-13.4h2v5.8h7.7v-5.8h2V115h-2v-5.8h-7.7v5.8H34.8z M54.8,115.3
	c-1.4,0-2.5-0.4-3.5-1.1s-1.5-1.8-1.5-3.1c0-1.4,0.5-2.5,1.5-3.2s2.4-1.1,4.1-1.1c1.4,0,2.7,0.2,4.1,0.6v-0.4c0-1.2-0.3-2.1-1-2.7
	s-1.7-0.9-2.9-0.9c-1.3,0-2.7,0.3-4,1l-0.6-1.6c1.6-0.8,3.3-1.1,4.8-1.1c1.9,0,3.3,0.5,4.3,1.5c0.9,0.9,1.4,2.2,1.4,3.9v8.2h-2v-2
	C58.4,114.5,56.8,115.3,54.8,115.3z M55.2,113.7c1.2,0,2.3-0.3,3.1-1c0.9-0.7,1.3-1.5,1.3-2.6v-1.2c-1.3-0.4-2.6-0.6-3.9-0.6
	c-1.2,0-2.2,0.2-2.9,0.7s-1,1.2-1,2c0,0.8,0.3,1.5,1,1.9S54.2,113.7,55.2,113.7z M71.8,115.3c-1.9,0-3.5-0.7-4.9-2.1s-2-3-2-4.9
	c0-1.9,0.7-3.6,2-4.9s2.9-2.1,4.9-2.1c2.1,0,3.8,0.8,5.3,2.4l-1.3,1.3c-1.2-1.3-2.6-2-4.1-2c-1.3,0-2.5,0.5-3.4,1.5
	c-0.9,1-1.4,2.2-1.4,3.7c0,1.4,0.5,2.7,1.4,3.7c0.9,1,2.1,1.5,3.5,1.5c1.4,0,2.8-0.7,4-2l1.3,1.2C75.6,114.5,73.8,115.3,71.8,115.3z
	"/>
<path class="st1" d="M39.9,17.5c-2.5,0-4.6,2.1-4.6,4.6c0,2.5,2.1,4.6,4.6,4.6c2.5,0,4.6-2.1,4.6-4.6C44.5,19.5,42.5,17.5,39.9,17.5
	L39.9,17.5z M39.9,17.5 M39.9,33.5c-1.9,0-3.4,1.5-3.4,3.4v20.6c0,1.9,1.5,3.4,3.4,3.4c1.9,0,3.4-1.5,3.4-3.4V37
	C43.4,35.1,41.8,33.5,39.9,33.5L39.9,33.5z M39.9,33.5"/>
</svg>
