<?xml version="1.0" encoding="utf-8"?>
<!-- Generator: Adobe Illustrator 24.1.1, SVG Export Plug-In . SVG Version: 6.00 Build 0)  -->
<svg version="1.1" id="inactive" xmlns="http://www.w3.org/2000/svg" xmlns:xlink="http://www.w3.org/1999/xlink" x="0px" y="0px"
	 viewBox="0 0 225.9 65.4" style="enable-background:new 0 0 225.9 65.4;" xml:space="preserve">
<style type="text/css">
	.st0{fill:#FF8726;}
	.st1{enable-background:new    ;}
	.st2{fill:#FFFFFE;}
</style>
<rect id="Rectangle_3_copy" y="0" class="st0" width="225.9" height="65.4"/>
<g class="st1">
	<path class="st2" d="M25,42.4V21.1h4.7v8.4h8.6v-8.4H43v21.3h-4.7v-8.5h-8.6v8.5H25z"/>
	<path class="st2" d="M52.3,42.7c-1.6,0-2.9-0.4-4-1.3s-1.6-2.1-1.6-3.7c0-1.7,0.6-3,1.8-3.9c1.2-0.9,2.8-1.3,4.8-1.3
		c1.4,0,2.7,0.2,4,0.7v-0.3c0-2-1.2-3-3.5-3c-1.4,0-2.9,0.3-4.5,0.9l-1.2-3.5c2-0.9,4.1-1.3,6.3-1.3c2.5,0,4.3,0.6,5.5,1.8
		c1.2,1.2,1.8,2.9,1.8,5.2v9.5h-4.5v-1.8C55.9,42.1,54.3,42.7,52.3,42.7z M53.7,39.6c1.1,0,1.9-0.3,2.6-0.8c0.7-0.5,1-1.2,1-2.1
		v-0.8c-0.9-0.4-1.9-0.6-3-0.6c-1,0-1.8,0.2-2.4,0.6c-0.6,0.4-0.8,1-0.8,1.7c0,0.6,0.2,1.1,0.7,1.4C52.3,39.4,52.9,39.6,53.7,39.6z"
		/>
	<path class="st2" d="M86.7,30.1h-7.3v12.4h-4.6V26.1h11.9V30.1z"/>
	<path class="st2" d="M90.1,26.1h13.1v16.3h-4.6V30.1h-4.1c0,2.2-0.1,4-0.2,5.4c-0.2,1.5-0.4,2.7-0.7,3.6c-0.3,0.9-0.7,1.7-1.2,2.2
		c-0.5,0.5-1.1,0.9-1.6,1c-0.6,0.2-1.3,0.3-2.2,0.3c-0.8,0-1.6-0.1-2.3-0.3l0.3-3.7c0.4,0.1,0.7,0.1,1,0.1c0.5,0,0.9-0.1,1.2-0.3
		c0.3-0.2,0.6-0.8,0.8-1.6c0.3-0.8,0.4-2.1,0.5-3.8C90.1,31.3,90.1,29,90.1,26.1z"/>
	<path class="st2" d="M112,42.7c-1.6,0-2.9-0.4-4-1.3s-1.6-2.1-1.6-3.7c0-1.7,0.6-3,1.8-3.9c1.2-0.9,2.8-1.3,4.8-1.3
		c1.4,0,2.7,0.2,4,0.7v-0.3c0-2-1.2-3-3.5-3c-1.4,0-2.9,0.3-4.5,0.9l-1.2-3.5c2-0.9,4.1-1.3,6.3-1.3c2.5,0,4.3,0.6,5.5,1.8
		c1.2,1.2,1.8,2.9,1.8,5.2v9.5h-4.5v-1.8C115.7,42.1,114.1,42.7,112,42.7z M113.4,39.6c1.1,0,1.9-0.3,2.6-0.8c0.7-0.5,1-1.2,1-2.1
		v-0.8c-0.9-0.4-1.9-0.6-3-0.6c-1,0-1.8,0.2-2.4,0.6c-0.6,0.4-0.8,1-0.8,1.7c0,0.6,0.2,1.1,0.7,1.4C112,39.4,112.7,39.6,113.4,39.6z
		"/>
	<path class="st2" d="M125.4,26.1h8.9c1.7,0,3,0.4,4,1.1c1,0.7,1.5,1.7,1.5,3c0,1.7-0.9,2.9-2.6,3.7c2.1,0.6,3.2,2,3.2,4.1
		c0,1.4-0.5,2.5-1.6,3.3s-2.6,1.2-4.5,1.2h-8.9V26.1z M130,32.7h3.3c0.6,0,1.1-0.2,1.4-0.5c0.3-0.3,0.5-0.7,0.5-1.2
		c0-0.4-0.2-0.8-0.5-1.1c-0.3-0.3-0.8-0.4-1.4-0.4H130V32.7z M130,38.8h3.7c1.4,0,2.1-0.5,2.1-1.6c0-1.1-0.7-1.6-2.2-1.6H130V38.8z"
		/>
	<path class="st2" d="M158.6,26.1v16.3H154v-6.2h-5.7v6.2h-4.6V26.1h4.6v6.3h5.7v-6.3H158.6z"/>
	<path class="st2" d="M166.6,47.4c-1.5,0-2.8-0.4-4.1-1.1l1.6-3.3c0.7,0.4,1.4,0.6,2,0.6c0.7,0,1.3-0.4,1.6-1.1l-6.4-16.4h4.9
		l3.7,11.1l3.6-11.1h4.8L172,42.8c-0.6,1.7-1.3,2.9-2.1,3.5S168,47.4,166.6,47.4z"/>
	<path class="st2" d="M195.8,42.8c-2.1,0-3.8-0.6-5.3-1.8c-1.5-1.2-2.4-2.8-2.7-4.8h-2.2v6.2H181V26.1h4.6v6.3h2.2
		c0.4-1.9,1.3-3.5,2.8-4.7c1.4-1.2,3.2-1.8,5.3-1.8c2.4,0,4.4,0.8,5.9,2.4c1.5,1.6,2.3,3.6,2.3,6.1c0,2.4-0.8,4.4-2.3,6
		C200.2,42,198.2,42.8,195.8,42.8z M195.9,38.8c1.2,0,2.1-0.4,2.7-1.3s0.9-1.9,0.9-3.2c0-1.3-0.3-2.3-1-3.2
		c-0.7-0.9-1.6-1.3-2.7-1.3c-1.2,0-2.1,0.4-2.7,1.3c-0.6,0.8-0.9,1.9-0.9,3.2c0,1.3,0.3,2.3,1,3.2C193.8,38.4,194.7,38.8,195.9,38.8
		z"/>
</g>
</svg>
