<?xml version="1.0" encoding="utf-8"?>
<!-- Generator: Adobe Illustrator 24.1.1, SVG Export Plug-In . SVG Version: 6.00 Build 0)  -->
<svg version="1.1" id="press" xmlns="http://www.w3.org/2000/svg" xmlns:xlink="http://www.w3.org/1999/xlink" x="0px" y="0px"
	 viewBox="0 0 245.4 65.4" style="enable-background:new 0 0 245.4 65.4;" xml:space="preserve">
<style type="text/css">
	.st0{fill:#923B00;}
	.st1{enable-background:new    ;}
	.st2{fill:#FFFFFE;}
</style>
<rect id="Rectangle_3_copy" y="0" class="st0" width="245.4" height="65.4"/>
<g class="st1">
	<path class="st2" d="M25.2,42.4V21.1h17.8v21.3h-4.7V25.4h-8.4v17.1H25.2z"/>
	<path class="st2" d="M47.6,47.3V26.1h4.6v2.3c1.3-1.8,3-2.6,5.1-2.6c2,0,3.8,0.8,5.2,2.3c1.5,1.5,2.2,3.6,2.2,6.2
		c0,2.6-0.7,4.7-2.2,6.2c-1.5,1.5-3.2,2.3-5.2,2.3c-2,0-3.7-0.8-5.1-2.4v7H47.6z M53.3,37.6c0.8,0.8,1.7,1.3,2.8,1.3
		c1.1,0,2.1-0.4,2.8-1.3s1.2-1.9,1.2-3.3c0-1.3-0.4-2.4-1.2-3.2c-0.8-0.8-1.7-1.3-2.8-1.3c-1.1,0-2.1,0.4-2.8,1.3
		c-0.8,0.8-1.1,1.9-1.1,3.3C52.1,35.6,52.5,36.7,53.3,37.6z"/>
	<path class="st2" d="M82.4,40.3c-1.7,1.6-3.8,2.5-6.3,2.5c-2.5,0-4.6-0.8-6.3-2.4s-2.5-3.6-2.5-6c0-2.4,0.8-4.4,2.5-6
		c1.7-1.6,3.8-2.5,6.3-2.5c2.5,0,4.6,0.8,6.3,2.4c1.7,1.6,2.5,3.6,2.5,6C85,36.7,84.1,38.7,82.4,40.3z M76.2,38.8
		c1.3,0,2.3-0.4,3.1-1.3c0.8-0.9,1.2-1.9,1.2-3.2c0-1.2-0.4-2.3-1.2-3.2c-0.8-0.9-1.8-1.3-3.1-1.3c-1.3,0-2.3,0.4-3.1,1.3
		c-0.8,0.9-1.2,1.9-1.2,3.2c0,1.2,0.4,2.3,1.2,3.2C73.9,38.4,74.9,38.8,76.2,38.8z"/>
	<path class="st2" d="M100.7,42.4H90.4l-0.3,3.8h-3.9v-7.8H88c1.1-2.3,1.6-5.9,1.6-11v-1.4h13.3v12.4h2.2l-0.5,7.8h-3.9V42.4z
		 M92.7,38.5h5.6v-8.4h-4.4v0.4C93.9,34,93.5,36.6,92.7,38.5z"/>
	<path class="st2" d="M121.9,40.3c-1.7,1.6-3.8,2.5-6.3,2.5c-2.5,0-4.6-0.8-6.3-2.4s-2.5-3.6-2.5-6c0-2.4,0.8-4.4,2.5-6
		c1.7-1.6,3.8-2.5,6.3-2.5c2.5,0,4.6,0.8,6.3,2.4c1.7,1.6,2.5,3.6,2.5,6C124.5,36.7,123.6,38.7,121.9,40.3z M115.7,38.8
		c1.3,0,2.3-0.4,3.1-1.3c0.8-0.9,1.2-1.9,1.2-3.2c0-1.2-0.4-2.3-1.2-3.2c-0.8-0.9-1.8-1.3-3.1-1.3c-1.3,0-2.3,0.4-3.1,1.3
		c-0.8,0.9-1.2,1.9-1.2,3.2c0,1.2,0.4,2.3,1.2,3.2C113.4,38.4,114.4,38.8,115.7,38.8z"/>
	<path class="st2" d="M129.2,26.1h13.1v16.3h-4.6V30.1h-4.1c0,2.2-0.1,4-0.2,5.4s-0.4,2.7-0.7,3.6c-0.3,0.9-0.7,1.7-1.2,2.2
		c-0.5,0.5-1.1,0.9-1.6,1c-0.6,0.2-1.3,0.3-2.2,0.3c-0.8,0-1.6-0.1-2.3-0.3l0.3-3.7c0.4,0.1,0.7,0.1,1,0.1c0.5,0,0.9-0.1,1.2-0.3
		c0.3-0.2,0.6-0.8,0.8-1.6c0.3-0.8,0.4-2.1,0.5-3.8C129.1,31.3,129.2,29,129.2,26.1z"/>
	<path class="st2" d="M160.2,42.4h-4.7v-4.2l-1.9-2.3l-4.1,6.5h-5.2l6.2-9.6l-6-6.8h5.3l5.7,6.9v-6.9h4.7v6.9l5.7-6.9h5.4l-6,6.8
		l6.1,9.6h-5.1l-4.1-6.5l-1.9,2.3V42.4z"/>
	<path class="st2" d="M188.7,26.1v16.3h-4.5V33l-6.4,9.5h-4.4V26.1h4.5v9.5l6.4-9.5H188.7z"/>
	<path class="st2" d="M205.6,26.1v4h-4.8v12.4h-4.7V30.1h-4.8v-4H205.6z"/>
	<path class="st2" d="M208.1,42.4V26.1h4.6v5.4h3.3c2,0,3.5,0.5,4.7,1.4c1.2,0.9,1.8,2.3,1.8,4c0,1.7-0.6,3.1-1.7,4.1
		s-2.6,1.5-4.6,1.5H208.1z M215.6,35h-2.9v3.8h2.9c1.5,0,2.3-0.6,2.3-1.9c0-0.6-0.2-1-0.6-1.3C216.9,35.2,216.4,35,215.6,35z"/>
</g>
</svg>
