<?xml version="1.0" encoding="utf-8"?>
<!-- Generator: Adobe Illustrator 24.1.1, SVG Export Plug-In . SVG Version: 6.00 Build 0)  -->
<svg version="1.1" id="press" xmlns="http://www.w3.org/2000/svg" xmlns:xlink="http://www.w3.org/1999/xlink" x="0px" y="0px"
	 viewBox="0 0 174 69.2" style="enable-background:new 0 0 174 69.2;" xml:space="preserve">
<style type="text/css">
	.st0{fill:none;stroke:#923B00;stroke-width:3;}
	.st1{enable-background:new    ;}
	.st2{fill:#FFFFFF;}
</style>
<path id="Rectangle_3_copy" class="st0" d="M1.5,1.5h171v66.2H1.5V1.5z"/>
<g class="st1">
	<path class="st2" d="M30.6,46V24.4h10c2.5,0,4.4,0.6,5.6,1.9c1,1,1.5,2.2,1.5,3.7c0,2-0.9,3.6-2.8,4.6c1.3,0.5,2.3,1.2,3,2
		c0.7,0.8,1,1.9,1,3.3c0,1.9-0.7,3.4-2.2,4.4c-1.4,1-3.4,1.5-5.9,1.5H30.6z M35.3,33.1h4.4c2.3,0,3.4-0.8,3.4-2.3
		c0-0.7-0.3-1.3-0.8-1.6c-0.5-0.4-1.3-0.6-2.3-0.6h-4.7V33.1z M35.3,41.8h5.6c2.2,0,3.4-0.8,3.4-2.4c0-1.6-1.2-2.3-3.5-2.3h-5.5
		V41.8z"/>
	<path class="st2" d="M71.5,43.1c-2.2,2.2-4.9,3.2-8.2,3.2c-3.3,0-6-1.1-8.2-3.2s-3.2-4.8-3.2-7.9c0-3.1,1.1-5.7,3.3-7.9
		c2.2-2.2,4.9-3.2,8.2-3.2s6,1.1,8.2,3.2c2.2,2.2,3.2,4.8,3.2,7.9C74.8,38.3,73.7,40.9,71.5,43.1z M58.7,40c1.2,1.3,2.8,2,4.7,2
		c1.9,0,3.4-0.7,4.6-2c1.2-1.3,1.8-2.9,1.8-4.8c0-1.9-0.6-3.5-1.8-4.8c-1.2-1.3-2.8-2-4.7-2c-1.9,0-3.4,0.7-4.6,2
		c-1.2,1.3-1.8,2.9-1.8,4.8C56.9,37.1,57.5,38.7,58.7,40z"/>
	<path class="st2" d="M97.6,24.4V46h-4.7V31.9L83.5,46H79V24.4h4.7v14.1l9.5-14.1H97.6z M91.9,21.6c-0.9,0.8-2.1,1.2-3.5,1.2
		c-1.4,0-2.6-0.4-3.5-1.2c-0.9-0.8-1.5-2-1.7-3.4l2.7-0.5c0.4,1.4,1.2,2.1,2.4,2.1c1.2,0,2-0.7,2.4-2.1l2.7,0.5
		C93.4,19.6,92.8,20.7,91.9,21.6z"/>
	<path class="st2" d="M107.8,46V28.8h-6.6v-4.4h17.9v4.4h-6.6V46H107.8z"/>
	<path class="st2" d="M141.3,24.4V46h-4.7V31.9L127.2,46h-4.5V24.4h4.7v14.1l9.5-14.1H141.3z"/>
</g>
</svg>
