<?xml version="1.0" encoding="utf-8"?>
<!-- Generator: Adobe Illustrator 24.1.1, SVG Export Plug-In . SVG Version: 6.00 Build 0)  -->
<svg version="1.1" id="press" xmlns="http://www.w3.org/2000/svg" xmlns:xlink="http://www.w3.org/1999/xlink" x="0px" y="0px"
	 viewBox="0 0 243.9 67.2" style="enable-background:new 0 0 243.9 67.2;" xml:space="preserve">
<style type="text/css">
	.st0{enable-background:new    ;}
	.st1{fill:#FFFFFF;}
	.st2{fill:none;stroke:#923B00;}
	.st3{fill-rule:evenodd;clip-rule:evenodd;fill:#475993;}
</style>
<g class="st0">
	<path class="st1" d="M73.9,43.5V21.9h15.5v2.2H76.4v7.7H88v2.2H76.4v9.4H73.9z"/>
	<path class="st1" d="M97.7,43.8c-1.6,0-3-0.4-4.2-1.3c-1.2-0.9-1.8-2.1-1.8-3.7c0-1.7,0.6-2.9,1.8-3.8c1.2-0.9,2.9-1.4,5-1.4
		c1.6,0,3.3,0.2,4.9,0.7v-0.5c0-1.4-0.4-2.5-1.2-3.2c-0.8-0.7-2-1.1-3.5-1.1c-1.6,0-3.2,0.4-4.8,1.1l-0.7-1.9c2-0.9,3.9-1.4,5.8-1.4
		c2.3,0,4,0.6,5.1,1.8c1.1,1.1,1.7,2.7,1.7,4.7v9.7h-2.3v-2.4C102,42.9,100.1,43.8,97.7,43.8z M98.2,41.9c1.5,0,2.7-0.4,3.8-1.2
		s1.5-1.8,1.5-3.1v-1.5c-1.6-0.5-3.1-0.7-4.6-0.7c-1.5,0-2.6,0.3-3.4,0.9s-1.2,1.4-1.2,2.4c0,1,0.4,1.7,1.2,2.3
		C96.1,41.6,97,41.9,98.2,41.9z"/>
	<path class="st1" d="M118,43.8c-2.3,0-4.2-0.8-5.8-2.4s-2.4-3.6-2.4-5.9c0-2.3,0.8-4.2,2.4-5.9s3.5-2.4,5.8-2.4
		c2.5,0,4.6,0.9,6.4,2.8l-1.5,1.6c-1.5-1.6-3.1-2.3-4.9-2.3c-1.6,0-3,0.6-4,1.8c-1.1,1.2-1.6,2.7-1.6,4.4c0,1.7,0.6,3.2,1.7,4.4
		c1.1,1.2,2.5,1.8,4.2,1.8c1.7,0,3.3-0.8,4.8-2.4l1.6,1.4C122.6,42.8,120.5,43.8,118,43.8z"/>
	<path class="st1" d="M129.3,36.5c0.2,1.6,0.8,2.9,1.8,3.9c1.1,1,2.3,1.4,3.8,1.4c1.9,0,3.6-0.7,5-2.2l1.5,1.3c-1.8,2-4,3-6.6,3
		c-2.2,0-4.1-0.8-5.7-2.3s-2.3-3.5-2.3-6c0-2.3,0.7-4.3,2.2-5.9c1.5-1.6,3.3-2.4,5.4-2.4c2.3,0,4.1,0.8,5.4,2.4c1.3,1.6,2,3.6,2,6
		c0,0.3,0,0.6,0,0.8H129.3z M129.3,34.6h10.3c-0.1-1.5-0.7-2.8-1.5-3.8s-2.1-1.5-3.6-1.5c-1.4,0-2.5,0.5-3.5,1.5
		C130.1,31.7,129.5,33,129.3,34.6z"/>
	<path class="st1" d="M154.6,43.8c-2.5,0-4.5-1.1-6.1-3.4v3h-2.4V21h2.4v9.8c1.6-2.4,3.6-3.5,6.1-3.5c2,0,3.8,0.8,5.3,2.3
		c1.5,1.5,2.3,3.5,2.3,6.1c0,2.5-0.8,4.5-2.3,6C158.4,43,156.6,43.8,154.6,43.8z M154.2,41.7c1.6,0,2.9-0.6,4-1.7
		c1.1-1.1,1.6-2.6,1.6-4.5c0-1.8-0.5-3.3-1.6-4.4c-1.1-1.1-2.4-1.7-4-1.7c-1.5,0-2.9,0.6-4,1.8c-1.2,1.2-1.7,2.6-1.7,4.4
		c0,1.8,0.6,3.3,1.7,4.4C151.3,41.1,152.6,41.7,154.2,41.7z"/>
	<path class="st1" d="M179.8,41.4c-1.6,1.6-3.6,2.4-5.9,2.4c-2.4,0-4.3-0.8-5.9-2.4s-2.4-3.6-2.4-5.9c0-2.3,0.8-4.2,2.4-5.9
		c1.6-1.6,3.6-2.4,5.9-2.4c2.4,0,4.3,0.8,5.9,2.4s2.4,3.6,2.4,5.9C182.2,37.8,181.4,39.7,179.8,41.4z M173.9,41.7
		c1.7,0,3.1-0.6,4.2-1.8c1.1-1.2,1.6-2.7,1.6-4.4c0-1.7-0.6-3.2-1.7-4.4c-1.1-1.2-2.5-1.8-4.2-1.8c-1.7,0-3.1,0.6-4.2,1.8
		c-1.1,1.2-1.6,2.7-1.6,4.4c0,1.7,0.6,3.2,1.7,4.4C170.9,41.1,172.2,41.7,173.9,41.7z"/>
	<path class="st1" d="M199.7,41.4c-1.6,1.6-3.6,2.4-5.9,2.4s-4.3-0.8-5.9-2.4s-2.4-3.6-2.4-5.9c0-2.3,0.8-4.2,2.4-5.9
		s3.6-2.4,5.9-2.4s4.3,0.8,5.9,2.4c1.6,1.6,2.4,3.6,2.4,5.9C202.1,37.8,201.3,39.7,199.7,41.4z M193.8,41.7c1.7,0,3.1-0.6,4.2-1.8
		c1.1-1.2,1.6-2.7,1.6-4.4c0-1.7-0.6-3.2-1.7-4.4c-1.1-1.2-2.5-1.8-4.2-1.8c-1.7,0-3.1,0.6-4.2,1.8c-1.1,1.2-1.6,2.7-1.6,4.4
		c0,1.7,0.6,3.2,1.7,4.4C190.7,41.1,192.1,41.7,193.8,41.7z"/>
	<path class="st1" d="M206.4,43.5V21h2.4v15.5l8.6-9h3l-6.7,6.8l6.9,9.1h-2.8L212,36l-3.2,3.3v4.2H206.4z"/>
</g>
<path class="st2" d="M0.5,0.5h242.9v66.2H0.5V0.5z"/>
<rect x="28.1" y="19.6" class="st1" width="21" height="32"/>
<path class="st3" d="M49.6,14.4H22.4c-2.8,0-5,2.2-5,5v27.2c0,2.8,2.2,5,5,5h13.4l0-13.3h-3.4c-0.4,0-0.8-0.4-0.8-0.8c0,0,0,0,0,0
	l0-4.3c0-0.4,0.4-0.8,0.8-0.8c0,0,0,0,0,0h3.4v-4.1c0-4.8,2.9-7.4,7.2-7.4h3.5c0.5,0,0.8,0.4,0.8,0.8v3.6c0,0.5-0.4,0.8-0.8,0.8
	h-2.2c-2.3,0-2.8,1.1-2.8,2.7v3.6h5.1c0.4,0,0.8,0.4,0.8,0.8c0,0,0,0.1,0,0.1L47,37.6c0,0.4-0.4,0.7-0.8,0.7h-4.6l0,13.3h8
	c2.8,0,5-2.2,5-5c0,0,0,0,0,0V19.4C54.6,16.6,52.3,14.4,49.6,14.4C49.6,14.4,49.6,14.4,49.6,14.4L49.6,14.4L49.6,14.4z"/>
</svg>
