<?xml version="1.0" encoding="utf-8"?>
<!-- Generator: Adobe Illustrator 24.1.1, SVG Export Plug-In . SVG Version: 6.00 Build 0)  -->
<svg version="1.1" id="press" xmlns="http://www.w3.org/2000/svg" xmlns:xlink="http://www.w3.org/1999/xlink" x="0px" y="0px"
	 viewBox="0 0 208 67.2" style="enable-background:new 0 0 208 67.2;" xml:space="preserve">
<style type="text/css">
	.st0{enable-background:new    ;}
	.st1{fill:#FFFFFF;}
	.st2{fill:none;stroke:#923B00;}
	.st3{fill:#4285F4;}
	.st4{fill:#34A853;}
	.st5{fill:#FBBC05;}
	.st6{fill:#EB4335;}
</style>
<g class="st0">
	<path class="st1" d="M86.8,43.8c-3.3,0-6-1.1-8-3.2c-2-2.1-3-4.8-3-8c0-3,1-5.7,3-7.9c2-2.2,4.6-3.3,7.8-3.3c1.7,0,3.2,0.2,4.4,0.7
		c1.2,0.5,2.4,1.2,3.6,2.2l-1.6,1.8c-1.9-1.6-4.1-2.5-6.6-2.5c-2.4,0-4.3,0.9-5.9,2.6s-2.3,3.8-2.3,6.3c0,2.6,0.8,4.8,2.3,6.4
		c1.5,1.7,3.6,2.5,6.2,2.5c2.4,0,4.5-0.7,6.2-2.2v-5.4h-6.6v-2.2h8.9v8.6C93,42.7,90.1,43.8,86.8,43.8z"/>
	<path class="st1" d="M113.8,41.4c-1.6,1.6-3.6,2.4-5.9,2.4s-4.3-0.8-5.9-2.4c-1.6-1.6-2.4-3.6-2.4-5.9c0-2.3,0.8-4.2,2.4-5.9
		c1.6-1.6,3.6-2.4,5.9-2.4s4.3,0.8,5.9,2.4c1.6,1.6,2.4,3.6,2.4,5.9C116.2,37.8,115.4,39.7,113.8,41.4z M107.9,41.7
		c1.7,0,3.1-0.6,4.2-1.8c1.1-1.2,1.6-2.7,1.6-4.4c0-1.7-0.6-3.2-1.7-4.4c-1.1-1.2-2.5-1.8-4.2-1.8c-1.7,0-3.1,0.6-4.2,1.8
		c-1.1,1.2-1.6,2.7-1.6,4.4c0,1.7,0.6,3.2,1.7,4.4C104.8,41.1,106.2,41.7,107.9,41.7z"/>
	<path class="st1" d="M133.7,41.4c-1.6,1.6-3.6,2.4-5.9,2.4s-4.3-0.8-5.9-2.4c-1.6-1.6-2.4-3.6-2.4-5.9c0-2.3,0.8-4.2,2.4-5.9
		c1.6-1.6,3.6-2.4,5.9-2.4s4.3,0.8,5.9,2.4c1.6,1.6,2.4,3.6,2.4,5.9C136.1,37.8,135.3,39.7,133.7,41.4z M127.8,41.7
		c1.7,0,3.1-0.6,4.2-1.8c1.1-1.2,1.6-2.7,1.6-4.4c0-1.7-0.6-3.2-1.7-4.4c-1.1-1.2-2.5-1.8-4.2-1.8c-1.7,0-3.1,0.6-4.2,1.8
		c-1.1,1.2-1.6,2.7-1.6,4.4c0,1.7,0.6,3.2,1.7,4.4C124.7,41.1,126.1,41.7,127.8,41.7z"/>
	<path class="st1" d="M147.4,48.4c-2.7,0-5.1-0.7-7.2-2.2l1.1-1.8c1.9,1.4,3.9,2,6.1,2c1.8,0,3.2-0.5,4.2-1.5c1-1,1.6-2.4,1.6-4.2
		v-1.9c-1.7,2.2-3.8,3.4-6.3,3.4c-2,0-3.8-0.7-5.3-2.1c-1.5-1.4-2.2-3.2-2.2-5.4s0.7-4,2.2-5.4c1.5-1.4,3.2-2.1,5.2-2.1
		c2.5,0,4.6,1.1,6.2,3.2v-2.9h2.4v13.1c0,2.4-0.7,4.3-2,5.6C152,47.7,150,48.4,147.4,48.4z M147.4,40.1c1.6,0,2.9-0.5,4.1-1.5
		s1.8-2.3,1.8-3.9c0-1.6-0.6-2.9-1.7-3.9c-1.2-1-2.5-1.5-4.1-1.5c-1.6,0-2.9,0.5-3.9,1.5c-1.1,1-1.6,2.3-1.6,3.9
		c0,1.6,0.5,2.9,1.6,3.9C144.6,39.6,145.8,40.1,147.4,40.1z"/>
	<path class="st1" d="M161,43.5V21h2.4v22.5H161z"/>
	<path class="st1" d="M170.3,36.5c0.2,1.6,0.8,2.9,1.8,3.9c1.1,1,2.3,1.4,3.8,1.4c1.9,0,3.6-0.7,5-2.2l1.5,1.3c-1.8,2-4,3-6.6,3
		c-2.2,0-4.1-0.8-5.7-2.3s-2.3-3.5-2.3-6c0-2.3,0.7-4.3,2.2-5.9c1.5-1.6,3.3-2.4,5.4-2.4c2.3,0,4.1,0.8,5.4,2.4c1.3,1.6,2,3.6,2,6
		c0,0.3,0,0.6,0,0.8H170.3z M170.3,34.6h10.3c-0.1-1.5-0.7-2.8-1.5-3.8c-0.9-1-2.1-1.5-3.6-1.5c-1.4,0-2.5,0.5-3.5,1.5
		C171,31.7,170.5,33,170.3,34.6z"/>
</g>
<path class="st2" d="M0.5,0.5h207v66.2H0.5V0.5z"/>
<g>
	<path class="st3" d="M55,34.3c0-1.5-0.1-2.5-0.4-3.6H37.9v6.6h9.8c-0.2,1.6-1.3,4.1-3.6,5.8v0.2l5.3,4.1h0.4
		C53.1,44.3,55,39.7,55,34.3"/>
	<path class="st4" d="M37.9,51.7c4.8,0,8.8-1.6,11.8-4.3L44.1,43c-1.5,1-3.5,1.8-6.2,1.8c-4.7,0-8.7-3.1-10.1-7.4h-0.2l-5.5,4.2
		L22,41.8C25,47.7,31,51.7,37.9,51.7"/>
	<path class="st5" d="M27.8,37.4c-0.4-1.1-0.6-2.3-0.6-3.5s0.2-2.4,0.6-3.5v-0.2l-5.6-4.3L22,26c-1.2,2.4-1.9,5.1-1.9,8
		s0.7,5.6,1.9,8L27.8,37.4"/>
	<path class="st6" d="M37.9,23c3.3,0,5.6,1.4,6.9,2.6l5-4.9c-3.1-2.9-7.1-4.6-11.9-4.6c-7,0-13,4-15.9,9.8l5.7,4.5
		C29.3,26.1,33.2,23,37.9,23"/>
</g>
</svg>
