<?xml version="1.0" encoding="utf-8"?>
<!-- Generator: Adobe Illustrator 24.1.1, SVG Export Plug-In . SVG Version: 6.00 Build 0)  -->
<svg version="1.1" id="Layer_1" xmlns="http://www.w3.org/2000/svg" xmlns:xlink="http://www.w3.org/1999/xlink" x="0px" y="0px"
	 viewBox="0 0 33 33" style="enable-background:new 0 0 33 33;" xml:space="preserve">
<style type="text/css">
	.st0{fill:#FF8726;}
</style>
<path class="st0" d="M28.3,14.1V5.9c0-0.7-0.5-1.2-1.2-1.2h-8.2c0-2.6-2.1-4.7-4.7-4.7S9.4,2.1,9.4,4.7H1.2C0.5,4.7,0,5.2,0,5.9
	v10.3c0,0.7,0.5,1.2,1.2,1.2c0.3,0,0.6-0.1,0.8-0.3c1-0.9,2.5-0.8,3.3,0.2s0.8,2.5-0.2,3.3c-0.9,0.8-2.3,0.8-3.2,0
	c-0.5-0.4-1.2-0.4-1.7,0.1C0.1,20.9,0,21.2,0,21.5v10.3C0,32.5,0.5,33,1.2,33h10.3c0.7,0,1.2-0.5,1.2-1.2c0-0.3-0.1-0.6-0.3-0.8
	c-0.9-1-0.8-2.5,0.2-3.3c1-0.9,2.5-0.8,3.3,0.2c0.8,0.9,0.8,2.3,0,3.2c-0.4,0.5-0.4,1.2,0.1,1.7c0.2,0.2,0.5,0.3,0.8,0.3h10.3
	c0.7,0,1.2-0.5,1.2-1.2v-8.3c2.6,0,4.7-2.1,4.7-4.7S30.9,14.1,28.3,14.1z M28.3,21.2c-0.3,0-0.5-0.1-0.8-0.1
	c-0.6-0.2-1.3,0.1-1.5,0.7c0,0.1-0.1,0.3-0.1,0.4v8.5h-7.2c0.1-0.4,0.2-0.8,0.2-1.2c0-2.6-2.1-4.7-4.7-4.7s-4.7,2.1-4.7,4.7
	c0,0.4,0.1,0.8,0.2,1.2H2.4v-7.2c0.4,0.1,0.8,0.2,1.2,0.2c2.6,0,4.7-2.1,4.7-4.7s-2.1-4.7-4.7-4.7c-0.4,0-0.8,0.1-1.2,0.2V7.1h8.5
	c0.7,0,1.2-0.5,1.2-1.2c0-0.1,0-0.3-0.1-0.4c-0.1-0.3-0.1-0.5-0.1-0.8c0-1.3,1.1-2.4,2.4-2.4s2.4,1.1,2.4,2.4c0,0.3-0.1,0.5-0.1,0.8
	c-0.2,0.6,0.1,1.3,0.7,1.5c0.1,0,0.3,0.1,0.4,0.1h8.5v8.5c0,0.7,0.5,1.2,1.2,1.2c0.1,0,0.3,0,0.4-0.1c0.3-0.1,0.5-0.1,0.8-0.1
	c1.3,0,2.4,1.1,2.4,2.4C30.6,20.2,29.6,21.2,28.3,21.2z"/>
</svg>
