<?xml version="1.0" encoding="utf-8"?>
<!-- Generator: Adobe Illustrator 24.1.1, SVG Export Plug-In . SVG Version: 6.00 Build 0)  -->
<svg version="1.1" id="Layer_1" xmlns="http://www.w3.org/2000/svg" xmlns:xlink="http://www.w3.org/1999/xlink" x="0px" y="0px"
	 viewBox="0 0 42 24" style="enable-background:new 0 0 42 24;" xml:space="preserve">
<style type="text/css">
	.st0{fill:#FF8726;}
</style>
<path class="st0" d="M41.4,11l-4-4C28-2.3,13.8-2.3,4.4,7l-4,4C0.1,11.3,0,11.6,0,12c0,0.4,0.1,0.7,0.4,1l4,4c4.7,4.7,10.6,7,16.5,7
	c5.9,0,11.8-2.3,16.5-7l4-4c0.3-0.3,0.4-0.6,0.4-1C41.9,11.6,41.7,11.3,41.4,11z M35.5,15c-8.3,8.3-20.9,8.3-29.2,0l-3-3l3.1-3
	c8.3-8.3,20.8-8.3,29.1,0l3,3L35.5,15z M20.9,3.8c-4.5,0-8.2,3.7-8.2,8.2s3.7,8.2,8.2,8.2s8.2-3.7,8.2-8.2S25.4,3.8,20.9,3.8z
	 M20.9,17.4c-3,0-5.4-2.4-5.4-5.4s2.4-5.4,5.4-5.4S26.4,9,26.4,12S23.9,17.4,20.9,17.4z M24.7,12c0,2.1-1.7,3.8-3.8,3.8
	c-2.1,0-3.8-1.7-3.8-3.8h2.7c0,0.6,0.4,1,1,1c0.6,0,1-0.4,1-1c0-0.6-0.4-1-1-1V8.2C23,8.2,24.7,9.9,24.7,12z"/>
</svg>
