<?xml version="1.0" encoding="utf-8"?>
<!-- Generator: Adobe Illustrator 24.1.1, SVG Export Plug-In . SVG Version: 6.00 Build 0)  -->
<svg version="1.1" id="press" xmlns="http://www.w3.org/2000/svg" xmlns:xlink="http://www.w3.org/1999/xlink" x="0px" y="0px"
	 viewBox="0 0 362.8 77.3" style="enable-background:new 0 0 362.8 77.3;" xml:space="preserve">
<style type="text/css">
	.st0{fill-rule:evenodd;clip-rule:evenodd;fill:#923B00;}
	.st1{enable-background:new    ;}
	.st2{fill:#FFFFFE;}
</style>
<path id="Rectangle_3_copy" class="st0" d="M0,0h362.8v77.3H0V0z"/>
<g class="st1">
	<path class="st2" d="M33.4,48.9V28.4h4.5v8.1h8.3v-8.1h4.5v20.5h-4.5v-8.2h-8.3v8.2H33.4z"/>
	<path class="st2" d="M73.4,46.2c-2.1,2.1-4.7,3.1-7.8,3.1c-3.1,0-5.7-1-7.8-3.1c-2.1-2-3.1-4.6-3.1-7.5c0-2.9,1-5.4,3.1-7.5
		c2.1-2.1,4.7-3.1,7.8-3.1c3.1,0,5.7,1,7.8,3.1c2.1,2,3.1,4.6,3.1,7.5C76.5,41.6,75.5,44.1,73.4,46.2z M61.2,43.2
		c1.2,1.2,2.7,1.9,4.4,1.9c1.8,0,3.3-0.6,4.4-1.9s1.7-2.8,1.7-4.6c0-1.8-0.6-3.3-1.8-4.6c-1.2-1.2-2.7-1.9-4.4-1.9
		c-1.8,0-3.3,0.6-4.4,1.9c-1.2,1.2-1.7,2.8-1.7,4.6C59.5,40.4,60,42,61.2,43.2z"/>
	<path class="st2" d="M80.5,48.9V28.4H90c2.4,0,4.1,0.6,5.4,1.8c0.9,0.9,1.4,2.1,1.4,3.5c0,1.9-0.9,3.4-2.7,4.4
		c1.3,0.5,2.2,1.1,2.9,1.9s1,1.8,1,3.2c0,1.8-0.7,3.2-2,4.2c-1.4,1-3.2,1.4-5.6,1.4H80.5z M84.9,36.7h4.2c2.2,0,3.2-0.7,3.2-2.2
		c0-0.7-0.3-1.2-0.8-1.6c-0.5-0.4-1.2-0.5-2.2-0.5h-4.4V36.7z M84.9,44.9h5.4c2.1,0,3.2-0.8,3.2-2.3c0-1.5-1.1-2.2-3.3-2.2h-5.2
		V44.9z"/>
	<path class="st2" d="M101.7,48.9V28.4h4.5v7h4.4c2.3,0,4.2,0.6,5.5,1.8c1.3,1.2,2,2.8,2,4.8c0,2.1-0.7,3.8-2.1,5
		c-1.4,1.2-3.3,1.9-5.7,1.9H101.7z M110.1,39.2h-4v5.6h4c2.2,0,3.4-1,3.4-2.9C113.5,40.1,112.4,39.2,110.1,39.2z M120.3,48.9V28.4
		h4.5v20.5H120.3z"/>
	<path class="st2" d="M147.4,28.4v20.5h-4.4V35.5l-9,13.4h-4.2V28.4h4.4v13.4l9-13.4H147.4z M141.9,25.7c-0.9,0.8-2,1.2-3.3,1.2
		c-1.3,0-2.5-0.4-3.3-1.2s-1.4-1.9-1.6-3.3l2.6-0.5c0.4,1.3,1.2,2,2.3,2c1.1,0,1.9-0.7,2.3-2l2.6,0.5
		C143.3,23.8,142.8,24.9,141.9,25.7z"/>
	<path class="st2" d="M169.7,39.2l4.9-10.8h4.9l-7.9,15.8c-0.9,1.8-1.8,3-2.9,3.8s-2.3,1.2-3.8,1.2c-1.5,0-3-0.4-4.4-1.2l1.8-3.3
		c0.7,0.4,1.6,0.7,2.4,0.7c1,0,1.9-0.5,2.6-1.6l-8.2-15.3h5L169.7,39.2z"/>
	<path class="st2" d="M194.4,48.9v-7.6c-2.1,1-3.9,1.5-5.4,1.5c-2.1,0-3.8-0.6-5-1.7c-1.2-1.2-1.8-2.9-1.8-5.2v-7.5h4.5v6.2
		c0,2.7,1.1,4,3.3,4c1.9,0,3.3-0.4,4.5-1.3v-8.8h4.5v20.5H194.4z"/>
	<path class="st2" d="M202.1,48.9l8.8-20.6h4.2l8.8,20.6h-4.7l-1.9-4.6h-8.7l-1.9,4.6H202.1z M210.2,40.3h5.4l-2.7-6.6L210.2,40.3z"
		/>
	<path class="st2" d="M235.4,49.2c-3,0-5.5-1-7.5-3.1c-2-2-3-4.6-3-7.5c0-3,1-5.5,3-7.5c2-2,4.6-3.1,7.7-3.1c1.8,0,3.3,0.3,4.5,0.9
		c1.2,0.6,2.4,1.4,3.5,2.5l-2.7,3.1c-0.9-0.8-1.7-1.4-2.5-1.7c-0.8-0.4-1.7-0.5-2.8-0.5c-1.7,0-3.1,0.6-4.3,1.9
		c-1.1,1.2-1.7,2.8-1.7,4.6c0,1.8,0.6,3.3,1.7,4.6c1.1,1.2,2.5,1.9,4.3,1.9c1.1,0,2-0.2,2.8-0.6c0.8-0.4,1.6-1,2.5-1.8l2.9,3.1
		c-1.1,1.2-2.3,2.1-3.6,2.6C238.9,49,237.3,49.2,235.4,49.2z"/>
	<path class="st2" d="M252.2,48.9V32.6h-6.2v-4.2h17v4.2h-6.2v16.3H252.2z"/>
	<path class="st2" d="M266.4,48.9V28.4h4.5v8.1h8.3v-8.1h4.5v20.5h-4.5v-8.2h-8.3v8.2H266.4z"/>
	<path class="st2" d="M306.3,28.4v20.5h-4.4V35.5l-9,13.4h-4.2V28.4h4.4v13.4l9-13.4H306.3z"/>
	<path class="st2" d="M311.2,48.9V28.4h4.5v9l8.3-9h5.4l-8.3,8.7l8.7,11.8h-5.4l-6.4-8.7l-2.4,2.5v6.3H311.2z"/>
</g>
</svg>
