<?xml version="1.0" encoding="utf-8"?>
<!-- Generator: Adobe Illustrator 24.1.1, SVG Export Plug-In . SVG Version: 6.00 Build 0)  -->
<svg version="1.1" id="inactive" xmlns="http://www.w3.org/2000/svg" xmlns:xlink="http://www.w3.org/1999/xlink" x="0px" y="0px"
	 viewBox="0 0 128 119.2" style="enable-background:new 0 0 128 119.2;" xml:space="preserve">
<style type="text/css">
	.st0{enable-background:new    ;}
	.st1{fill:#FFFFFF;}
	.st2{fill:none;stroke:#FFFFFF;stroke-width:3;}
</style>
<g class="st0">
	<path class="st1" d="M0.5,115V96.9h14.3V115h-2V98.8H2.5V115H0.5z"/>
	<path class="st1" d="M23.5,115.3c-1.4,0-2.5-0.4-3.5-1.1s-1.5-1.8-1.5-3.1c0-1.4,0.5-2.5,1.6-3.2c1-0.8,2.4-1.1,4.2-1.1
		c1.4,0,2.7,0.2,4.1,0.6v-0.4c0-1.2-0.3-2.1-1-2.7c-0.7-0.6-1.7-0.9-2.9-0.9c-1.3,0-2.7,0.3-4.1,1l-0.6-1.6c1.7-0.8,3.3-1.1,4.9-1.1
		c1.9,0,3.3,0.5,4.3,1.5c0.9,0.9,1.4,2.2,1.4,3.9v8.2h-2v-2C27.2,114.5,25.6,115.3,23.5,115.3z M23.9,113.7c1.2,0,2.3-0.3,3.2-1
		s1.3-1.5,1.3-2.6v-1.2c-1.3-0.4-2.6-0.6-3.9-0.6c-1.2,0-2.2,0.2-2.9,0.7s-1,1.2-1,2c0,0.8,0.3,1.5,1,1.9
		C22.2,113.4,23,113.7,23.9,113.7z"/>
	<path class="st1" d="M34.5,119.1v-17.5h2v2.7c1.3-2,3.1-3,5.1-3c1.7,0,3.2,0.6,4.5,1.9c1.3,1.3,1.9,3,1.9,5.1c0,2.1-0.6,3.8-1.9,5
		c-1.3,1.3-2.8,1.9-4.5,1.9c-2.1,0-3.8-0.9-5.1-2.8v6.7H34.5z M41.3,113.5c1.3,0,2.5-0.5,3.4-1.4c0.9-0.9,1.3-2.2,1.3-3.8
		c0-1.5-0.5-2.8-1.4-3.7c-0.9-1-2-1.4-3.3-1.4c-1.3,0-2.4,0.5-3.4,1.5c-1,1-1.4,2.2-1.4,3.7c0,1.5,0.5,2.7,1.4,3.7
		C38.8,113,40,113.5,41.3,113.5z"/>
	<path class="st1" d="M54.4,115v-11.6h-4.8v-1.8h11.6v1.8h-4.8V115H54.4z"/>
	<path class="st1" d="M64.1,115v-13.4h2v5.8h7.7v-5.8h2V115h-2v-5.8h-7.7v5.8H64.1z"/>
	<path class="st1" d="M86.1,115.3c-1.9,0-3.5-0.7-4.7-2s-1.9-3-1.9-5c0-1.9,0.6-3.6,1.8-5s2.7-2,4.6-2c1.9,0,3.4,0.7,4.6,2
		c1.1,1.3,1.7,3,1.7,5.1c0,0.3,0,0.5,0,0.7H81.4c0.1,1.4,0.7,2.4,1.5,3.2c0.9,0.8,1.9,1.2,3.2,1.2c1.6,0,3-0.6,4.2-1.9l1.2,1.1
		C90.1,114.5,88.2,115.3,86.1,115.3z M81.4,107.5H90c-0.1-1.3-0.5-2.4-1.3-3.2c-0.7-0.9-1.7-1.3-3-1.3c-1.1,0-2.1,0.4-2.9,1.3
		C82,105.1,81.6,106.2,81.4,107.5z"/>
	<path class="st1" d="M95.5,119.1v-17.5h2v2.7c1.3-2,3.1-3,5.1-3c1.7,0,3.2,0.6,4.5,1.9s1.9,3,1.9,5.1c0,2.1-0.6,3.8-1.9,5
		c-1.3,1.3-2.8,1.9-4.5,1.9c-2.1,0-3.8-0.9-5.1-2.8v6.7H95.5z M102.3,113.5c1.3,0,2.5-0.5,3.4-1.4c0.9-0.9,1.3-2.2,1.3-3.8
		c0-1.5-0.5-2.8-1.4-3.7c-0.9-1-2-1.4-3.3-1.4c-1.3,0-2.4,0.5-3.4,1.5c-1,1-1.4,2.2-1.4,3.7c0,1.5,0.5,2.7,1.4,3.7
		C99.9,113,101,113.5,102.3,113.5z"/>
	<path class="st1" d="M112.7,115v-13.4h2v5h3.6c1.6,0,2.8,0.3,3.8,1c1,0.7,1.5,1.7,1.5,3c0,1.3-0.5,2.4-1.4,3.2
		c-0.9,0.8-2.1,1.2-3.7,1.2H112.7z M114.7,113.2h3.6c1,0,1.8-0.2,2.4-0.6c0.6-0.4,0.8-1.1,0.8-1.9c0-0.8-0.3-1.3-0.9-1.7
		c-0.6-0.4-1.4-0.6-2.4-0.6h-3.5V113.2z M125.9,115v-13.4h2V115H125.9z"/>
</g>
<ellipse class="st2" cx="63.7" cy="39.3" rx="37.8" ry="37.8"/>
<path class="st1" d="M86.3,44.1c0.1-0.2,0.1-0.4,0-0.6l-4.5-13.2c-0.2-0.4-0.6-0.7-1.1-0.5l-5.4,1.9c-0.1,0-0.1,0-0.2,0.1L74.3,32
	c-0.7,0.2-1.4,0.2-2.1-0.1l-0.5-0.3c-1-0.5-2.2-0.6-3.3-0.2L57.8,35c-0.4,0.1-0.6,0.5-0.6,0.8c0,0.2,0.1,2.1,1.5,3
	c0.9,0.6,2,0.7,3.3,0.2l3.6-1.2c0.4,1,1.3,2.6,3.1,3.5c0.9,0.5,1.9,0.7,2.9,0.7c0.9,0,1.9-0.2,2.9-0.5c0.4-0.2,0.7-0.6,0.5-1.1
	C75,40,74.5,39.8,74.1,40c-1.8,0.6-3.3,0.6-4.5-0.1c-1.9-1-2.5-3.3-2.6-3.3c-0.1-0.2-0.2-0.4-0.4-0.5c-0.2-0.1-0.5-0.1-0.7-0.1
	l-4.4,1.5c-0.8,0.3-1.4,0.3-1.8,0c-0.3-0.2-0.5-0.7-0.6-1.1l9.9-3.4c0.7-0.2,1.4-0.2,2,0.1l0.5,0.3c1,0.5,2.3,0.6,3.4,0.2l0.2-0.1
	l4.2,12.4c0.1,0.4,0.5,0.6,0.8,0.6c0.1,0,0.2,0,0.3,0l5.4-1.9C86,44.5,86.2,44.3,86.3,44.1L86.3,44.1z M84.4,43.2l-3.8,1.3l-4-11.6
	l3.8-1.3L84.4,43.2z M80.4,31.6 M77.4,52c0.4-0.9,0.3-1.9-0.2-2.6c0.3-0.2,0.5-0.5,0.7-0.9c0.6-1.2,0.1-2.8-1.2-3.4L73,43.3
	c-0.4-0.2-0.9,0-1.1,0.4c-0.2,0.4,0,0.9,0.4,1.1l3.8,1.8c0.4,0.2,0.6,0.7,0.4,1.1c-0.2,0.4-0.7,0.6-1.1,0.4l-7.1-3.5
	c-0.4-0.2-0.9,0-1.1,0.4c-0.2,0.4,0,0.9,0.4,1.1l4.5,2.2l3.5,1.7c0.2,0.1,0.3,0.3,0.4,0.5c0.1,0.2,0.1,0.4,0,0.6
	c-0.2,0.4-0.7,0.6-1.1,0.4l-8.9-4.3c-0.4-0.2-0.9,0-1.1,0.4c-0.2,0.4,0,0.9,0.4,1.1l7.9,3.9c0.2,0.1,0.3,0.3,0.4,0.5
	c0.1,0.2,0.1,0.4,0,0.6c-0.1,0.2-0.3,0.3-0.5,0.4c-0.2,0.1-0.4,0.1-0.6,0l-2.6-1.3l-5.5-2.7c-0.4-0.2-0.9,0-1.1,0.4
	c-0.2,0.4,0,0.9,0.4,1.1l5.5,2.7c0.2,0.1,0.3,0.3,0.4,0.5c0.1,0.2,0.1,0.4,0,0.6c-0.1,0.2-0.3,0.3-0.5,0.4c-0.2,0.1-0.4,0.1-0.6,0
	L58.5,51c-2-1-3.9-2.3-5.6-3.8L51,45.5l5.9-12c0.2-0.4,0-0.9-0.4-1.1l-5.1-2.5c-0.2-0.1-0.4-0.1-0.7,0c-0.2,0.1-0.4,0.2-0.5,0.4
	l-6.1,12.6c-0.2,0.4,0,0.9,0.4,1.1l5,2.5l2.2,2c1.8,1.7,3.8,3,6,4.1l9.8,4.8c0.3,0.2,0.7,0.3,1.1,0.3c0.3,0,0.5,0,0.8-0.1
	c0.6-0.2,1.2-0.7,1.4-1.3c0.1-0.3,0.2-0.5,0.2-0.8l0.4,0.2c0.3,0.2,0.7,0.3,1.1,0.3c0.3,0,0.5,0,0.8-0.1c0.6-0.2,1.2-0.7,1.4-1.3
	c0.2-0.3,0.3-0.7,0.3-1.1C76.1,53.3,76.9,52.8,77.4,52L77.4,52z M49.6,44.5L46,42.8l5.4-11l3.6,1.8L49.6,44.5z M55,33.5"/>
</svg>
