<?xml version="1.0" encoding="utf-8"?>
<!-- Generator: Adobe Illustrator 24.1.1, SVG Export Plug-In . SVG Version: 6.00 Build 0)  -->
<svg version="1.1" id="Layer_1" xmlns="http://www.w3.org/2000/svg" xmlns:xlink="http://www.w3.org/1999/xlink" x="0px" y="0px"
	 viewBox="0 0 128 119.2" style="enable-background:new 0 0 128 119.2;" xml:space="preserve">
<style type="text/css">
	.st0{fill:#FF8726;}
</style>
<path class="st0" d="M0.5,115V96.9h14.3V115h-2V98.8H2.5V115H0.5z M23.5,115.3c-1.4,0-2.5-0.4-3.5-1.1s-1.5-1.8-1.5-3.1
	c0-1.4,0.5-2.5,1.6-3.2c1-0.8,2.4-1.1,4.2-1.1c1.4,0,2.7,0.2,4.1,0.6V107c0-1.2-0.3-2.1-1-2.7s-1.7-0.9-2.9-0.9
	c-1.3,0-2.7,0.3-4.1,1l-0.6-1.6c1.7-0.8,3.3-1.1,4.9-1.1c1.9,0,3.3,0.5,4.3,1.5c0.9,0.9,1.4,2.2,1.4,3.9v8.2h-2v-2
	C27.2,114.5,25.6,115.3,23.5,115.3z M23.9,113.7c1.2,0,2.3-0.3,3.2-1s1.3-1.5,1.3-2.6v-1.2c-1.3-0.4-2.6-0.6-3.9-0.6
	c-1.2,0-2.2,0.2-2.9,0.7s-1,1.2-1,2s0.3,1.5,1,1.9C22.2,113.4,23,113.7,23.9,113.7z M34.5,119.1v-17.5h2v2.7c1.3-2,3.1-3,5.1-3
	c1.7,0,3.2,0.6,4.5,1.9s1.9,3,1.9,5.1s-0.6,3.8-1.9,5c-1.3,1.3-2.8,1.9-4.5,1.9c-2.1,0-3.8-0.9-5.1-2.8v6.7
	C36.5,119.1,34.5,119.1,34.5,119.1z M41.3,113.5c1.3,0,2.5-0.5,3.4-1.4s1.3-2.2,1.3-3.8c0-1.5-0.5-2.8-1.4-3.7c-0.9-1-2-1.4-3.3-1.4
	s-2.4,0.5-3.4,1.5s-1.4,2.2-1.4,3.7s0.5,2.7,1.4,3.7C38.8,113,40,113.5,41.3,113.5z M54.4,115v-11.6h-4.8v-1.8h11.6v1.8h-4.8V115
	H54.4z M64.1,115v-13.4h2v5.8h7.7v-5.8h2V115h-2v-5.8h-7.7v5.8H64.1z M86.1,115.3c-1.9,0-3.5-0.7-4.7-2s-1.9-3-1.9-5
	c0-1.9,0.6-3.6,1.8-5s2.7-2,4.6-2s3.4,0.7,4.6,2c1.1,1.3,1.7,3,1.7,5.1c0,0.3,0,0.5,0,0.7H81.4c0.1,1.4,0.7,2.4,1.5,3.2
	c0.9,0.8,1.9,1.2,3.2,1.2c1.6,0,3-0.6,4.2-1.9l1.2,1.1C90.1,114.5,88.2,115.3,86.1,115.3z M81.4,107.5H90c-0.1-1.3-0.5-2.4-1.3-3.2
	c-0.7-0.9-1.7-1.3-3-1.3c-1.1,0-2.1,0.4-2.9,1.3C82,105.1,81.6,106.2,81.4,107.5z M95.5,119.1v-17.5h2v2.7c1.3-2,3.1-3,5.1-3
	c1.7,0,3.2,0.6,4.5,1.9s1.9,3,1.9,5.1s-0.6,3.8-1.9,5c-1.3,1.3-2.8,1.9-4.5,1.9c-2.1,0-3.8-0.9-5.1-2.8v6.7
	C97.5,119.1,95.5,119.1,95.5,119.1z M102.3,113.5c1.3,0,2.5-0.5,3.4-1.4s1.3-2.2,1.3-3.8c0-1.5-0.5-2.8-1.4-3.7
	c-0.9-1-2-1.4-3.3-1.4s-2.4,0.5-3.4,1.5s-1.4,2.2-1.4,3.7s0.5,2.7,1.4,3.7C99.9,113,101,113.5,102.3,113.5z M112.7,115v-13.4h2v5
	h3.6c1.6,0,2.8,0.3,3.8,1s1.5,1.7,1.5,3s-0.5,2.4-1.4,3.2c-0.9,0.8-2.1,1.2-3.7,1.2C118.5,115,112.7,115,112.7,115z M114.7,113.2
	h3.6c1,0,1.8-0.2,2.4-0.6s0.8-1.1,0.8-1.9s-0.3-1.3-0.9-1.7c-0.6-0.4-1.4-0.6-2.4-0.6h-3.5V113.2z M125.9,115v-13.4h2V115H125.9z
	 M63.7,78.6C42,78.6,24.4,61,24.4,39.3S42,0,63.7,0C85.4,0,103,17.6,103,39.3S85.4,78.6,63.7,78.6z M63.7,3
	c-20,0-36.3,16.3-36.3,36.3s16.3,36.3,36.3,36.3c20,0,36.3-16.3,36.3-36.3S83.7,3,63.7,3z M86.3,44.1c0.1-0.2,0.1-0.4,0-0.6
	l-4.5-13.2c-0.2-0.4-0.6-0.7-1.1-0.5l-5.4,1.9c-0.1,0-0.1,0-0.2,0.1L74.3,32c-0.7,0.2-1.4,0.2-2.1-0.1l-0.5-0.3
	c-1-0.5-2.2-0.6-3.3-0.2L57.8,35c-0.4,0.1-0.6,0.5-0.6,0.8c0,0.2,0.1,2.1,1.5,3c0.9,0.6,2,0.7,3.3,0.2l3.6-1.2
	c0.4,1,1.3,2.6,3.1,3.5c0.9,0.5,1.9,0.7,2.9,0.7c0.9,0,1.9-0.2,2.9-0.5c0.4-0.2,0.7-0.6,0.5-1.1c0-0.4-0.5-0.6-0.9-0.4
	c-1.8,0.6-3.3,0.6-4.5-0.1c-1.9-1-2.5-3.3-2.6-3.3c-0.1-0.2-0.2-0.4-0.4-0.5C66.4,36,66.1,36,65.9,36l-4.4,1.5
	c-0.8,0.3-1.4,0.3-1.8,0c-0.3-0.2-0.5-0.7-0.6-1.1L69,33c0.7-0.2,1.4-0.2,2,0.1l0.5,0.3c1,0.5,2.3,0.6,3.4,0.2l0.2-0.1l4.2,12.4
	c0.1,0.4,0.5,0.6,0.8,0.6c0.1,0,0.2,0,0.3,0l5.4-1.9C86,44.5,86.2,44.3,86.3,44.1L86.3,44.1z M84.4,43.2l-3.8,1.3l-4-11.6l3.8-1.3
	L84.4,43.2z M77.4,52c0.4-0.9,0.3-1.9-0.2-2.6c0.3-0.2,0.5-0.5,0.7-0.9c0.6-1.2,0.1-2.8-1.2-3.4L73,43.3c-0.4-0.2-0.9,0-1.1,0.4
	s0,0.9,0.4,1.1l3.8,1.8c0.4,0.2,0.6,0.7,0.4,1.1c-0.2,0.4-0.7,0.6-1.1,0.4l-7.1-3.5c-0.4-0.2-0.9,0-1.1,0.4s0,0.9,0.4,1.1l4.5,2.2
	l3.5,1.7c0.2,0.1,0.3,0.3,0.4,0.5s0.1,0.4,0,0.6c-0.2,0.4-0.7,0.6-1.1,0.4L66,47.2c-0.4-0.2-0.9,0-1.1,0.4s0,0.9,0.4,1.1l7.9,3.9
	c0.2,0.1,0.3,0.3,0.4,0.5s0.1,0.4,0,0.6c-0.1,0.2-0.3,0.3-0.5,0.4c-0.2,0.1-0.4,0.1-0.6,0l-2.6-1.3l-5.5-2.7c-0.4-0.2-0.9,0-1.1,0.4
	c-0.2,0.4,0,0.9,0.4,1.1l5.5,2.7c0.2,0.1,0.3,0.3,0.4,0.5s0.1,0.4,0,0.6c-0.1,0.2-0.3,0.3-0.5,0.4c-0.2,0.1-0.4,0.1-0.6,0l-10-4.8
	c-2-1-3.9-2.3-5.6-3.8L51,45.5l5.9-12c0.2-0.4,0-0.9-0.4-1.1l-5.1-2.5c-0.2-0.1-0.4-0.1-0.7,0c-0.2,0.1-0.4,0.2-0.5,0.4l-6.1,12.6
	c-0.2,0.4,0,0.9,0.4,1.1l5,2.5l2.2,2c1.8,1.7,3.8,3,6,4.1l9.8,4.8c0.3,0.2,0.7,0.3,1.1,0.3c0.3,0,0.5,0,0.8-0.1
	c0.6-0.2,1.2-0.7,1.4-1.3c0.1-0.3,0.2-0.5,0.2-0.8l0.4,0.2c0.3,0.2,0.7,0.3,1.1,0.3c0.3,0,0.5,0,0.8-0.1c0.6-0.2,1.2-0.7,1.4-1.3
	c0.2-0.3,0.3-0.7,0.3-1.1C76.1,53.3,76.9,52.8,77.4,52L77.4,52z M49.6,44.5L46,42.8l5.4-11l3.6,1.8L49.6,44.5z"/>
</svg>
