<?xml version="1.0" encoding="utf-8"?>
<!-- Generator: Adobe Illustrator 24.1.1, SVG Export Plug-In . SVG Version: 6.00 Build 0)  -->
<svg version="1.1" id="press" xmlns="http://www.w3.org/2000/svg" xmlns:xlink="http://www.w3.org/1999/xlink" x="0px" y="0px"
	 viewBox="0 0 157.1 52.9" style="enable-background:new 0 0 157.1 52.9;" xml:space="preserve">
<style type="text/css">
	.st0{fill:#923B00;}
	.st1{enable-background:new    ;}
	.st2{fill:#FFFFFE;}
</style>
<rect id="Rectangle_3_copy_2" y="0" class="st0" width="157.1" height="52.9"/>
<g class="st1">
	<path class="st2" d="M36.4,32c-1.7,1.7-3.9,2.6-6.6,2.6S25,33.7,23.3,32c-1.7-1.7-2.6-3.8-2.6-6.3c0-2.5,0.9-4.6,2.6-6.3
		c1.7-1.7,3.9-2.6,6.6-2.6c2.6,0,4.8,0.9,6.5,2.6c1.7,1.7,2.6,3.8,2.6,6.3C39,28.2,38.1,30.3,36.4,32z M26.1,29.5
		c1,1,2.2,1.6,3.7,1.6c1.5,0,2.7-0.5,3.7-1.6c1-1,1.5-2.3,1.5-3.8c0-1.5-0.5-2.8-1.5-3.8c-1-1-2.2-1.6-3.7-1.6s-2.7,0.5-3.7,1.6
		c-1,1-1.5,2.3-1.5,3.8C24.7,27.2,25.1,28.5,26.1,29.5z"/>
	<path class="st2" d="M52.3,21.1v3.2h-3.9v10h-3.8v-10h-3.9v-3.2H52.3z"/>
	<path class="st2" d="M54.3,21.1h7.2c1.3,0,2.4,0.3,3.2,0.9c0.8,0.6,1.2,1.4,1.2,2.4c0,1.4-0.7,2.4-2.1,3c1.7,0.5,2.6,1.6,2.6,3.3
		c0,1.1-0.4,2-1.3,2.6c-0.9,0.6-2.1,1-3.6,1h-7.2V21.1z M58,26.4h2.6c0.5,0,0.9-0.1,1.2-0.4s0.4-0.6,0.4-1c0-0.3-0.1-0.6-0.4-0.9
		c-0.3-0.2-0.6-0.3-1.1-0.3H58V26.4z M58,31.4h3c1.1,0,1.7-0.4,1.7-1.3c0-0.9-0.6-1.3-1.8-1.3H58V31.4z"/>
	<path class="st2" d="M75.3,34.6c-2,0-3.6-0.6-4.9-1.9c-1.3-1.3-1.9-2.9-1.9-5c0-1.9,0.6-3.5,1.8-4.9c1.2-1.3,2.8-2,4.7-2
		c2.1,0,3.7,0.7,4.8,2.1s1.6,3.1,1.6,5.1c0,0.2,0,0.5,0,1h-9.2c0.2,0.8,0.5,1.5,1.1,1.9c0.6,0.4,1.3,0.7,2.1,0.7
		c1.2,0,2.2-0.5,3.2-1.4l2.1,1.9C79.4,33.8,77.6,34.6,75.3,34.6z M72.1,26.7h5.6c-0.1-0.9-0.4-1.5-0.9-2c-0.5-0.5-1.1-0.8-1.9-0.8
		c-0.8,0-1.4,0.3-1.9,0.8C72.6,25.1,72.3,25.8,72.1,26.7z"/>
	<path class="st2" d="M94,21.1v3.2h-3.9v10h-3.8v-10h-3.9v-3.2H94z"/>
	<path class="st2" d="M108.3,21.1v13.2h-3.6v-7.7l-5.1,7.7H96V21.1h3.6v7.7l5.1-7.7H108.3z"/>
	<path class="st2" d="M121.9,21.1v3.2H118v10h-3.8v-10h-3.9v-3.2H121.9z"/>
	<path class="st2" d="M124,34.3V21.1h3.7v4.4h2.7c1.6,0,2.9,0.4,3.8,1.1s1.4,1.8,1.4,3.2c0,1.4-0.4,2.5-1.3,3.3
		c-0.9,0.8-2.1,1.2-3.7,1.2H124z M130.1,28.3h-2.3v3.1h2.4c1.2,0,1.8-0.5,1.8-1.6c0-0.5-0.2-0.8-0.5-1.1
		C131.1,28.4,130.7,28.3,130.1,28.3z"/>
</g>
</svg>
