<?xml version="1.0" encoding="utf-8"?>
<!-- Generator: Adobe Illustrator 24.1.1, SVG Export Plug-In . SVG Version: 6.00 Build 0)  -->
<svg version="1.1" id="inactive" xmlns="http://www.w3.org/2000/svg" xmlns:xlink="http://www.w3.org/1999/xlink" x="0px" y="0px"
	 viewBox="0 0 211 65.4" style="enable-background:new 0 0 211 65.4;" xml:space="preserve">
<style type="text/css">
	.st0{fill-rule:evenodd;clip-rule:evenodd;fill:#FF8726;}
	.st1{enable-background:new    ;}
	.st2{fill:#FFFFFE;}
</style>
<path id="Rectangle_3_copy" class="st0" d="M0,0h211v65.4H0V0z"/>
<g class="st1">
	<path class="st2" d="M50.6,42.4V21.1h4.7v8.4h8.6v-8.4h4.7v21.3h-4.7v-8.5h-8.6v8.5H50.6z"/>
	<path class="st2" d="M77.9,42.7c-1.6,0-2.9-0.4-4-1.3s-1.6-2.1-1.6-3.7c0-1.7,0.6-3,1.8-3.9c1.2-0.9,2.8-1.3,4.8-1.3
		c1.4,0,2.7,0.2,4,0.7v-0.3c0-2-1.2-3-3.5-3c-1.4,0-2.9,0.3-4.5,0.9l-1.2-3.5c2-0.9,4.1-1.3,6.3-1.3c2.5,0,4.3,0.6,5.5,1.8
		c1.2,1.2,1.8,2.9,1.8,5.2v9.5h-4.5v-1.8C81.6,42.1,79.9,42.7,77.9,42.7z M79.3,39.6c1.1,0,1.9-0.3,2.6-0.8c0.7-0.5,1-1.2,1-2.1
		v-0.8c-0.9-0.4-1.9-0.6-3-0.6c-1,0-1.8,0.2-2.4,0.6c-0.6,0.4-0.8,1-0.8,1.7c0,0.6,0.2,1.1,0.7,1.4C77.9,39.4,78.5,39.6,79.3,39.6z"
		/>
	<path class="st2" d="M95.5,26.1v5.1c0,1.8,0.8,2.7,2.3,2.7c1.1,0,2.1-0.3,3.2-0.8v-7h4.7v16.3h-4.7v-5.7c-1.5,0.7-2.9,1.1-4.4,1.1
		c-1.7,0-3.1-0.5-4.1-1.4s-1.6-2.2-1.6-3.9v-6.4H95.5z"/>
	<path class="st2" d="M114.3,42.7c-1.6,0-2.9-0.4-4-1.3s-1.6-2.1-1.6-3.7c0-1.7,0.6-3,1.8-3.9c1.2-0.9,2.8-1.3,4.8-1.3
		c1.4,0,2.7,0.2,4,0.7v-0.3c0-2-1.2-3-3.5-3c-1.4,0-2.9,0.3-4.5,0.9l-1.2-3.5c2-0.9,4.1-1.3,6.3-1.3c2.5,0,4.3,0.6,5.5,1.8
		c1.2,1.2,1.8,2.9,1.8,5.2v9.5h-4.5v-1.8C118,42.1,116.4,42.7,114.3,42.7z M115.7,39.6c1.1,0,1.9-0.3,2.6-0.8c0.7-0.5,1-1.2,1-2.1
		v-0.8c-0.9-0.4-1.9-0.6-3-0.6c-1,0-1.8,0.2-2.4,0.6c-0.6,0.4-0.8,1-0.8,1.7c0,0.6,0.2,1.1,0.7,1.4C114.3,39.4,115,39.6,115.7,39.6z
		"/>
	<path class="st2" d="M140.1,26.1v4h-4.8v12.4h-4.7V30.1h-4.8v-4H140.1z"/>
	<path class="st2" d="M142.7,42.4V26.1h4.6v5.4h3.3c2,0,3.5,0.5,4.7,1.4c1.2,0.9,1.8,2.3,1.8,4c0,1.7-0.6,3.1-1.7,4.1
		s-2.6,1.5-4.6,1.5H142.7z M150.2,35h-2.9v3.8h2.9c1.5,0,2.3-0.6,2.3-1.9c0-0.6-0.2-1-0.6-1.3C151.5,35.2,150.9,35,150.2,35z"/>
</g>
</svg>
