<?xml version="1.0" encoding="utf-8"?>
<!-- Generator: Adobe Illustrator 24.1.1, SVG Export Plug-In . SVG Version: 6.00 Build 0)  -->
<svg version="1.1" id="press" xmlns="http://www.w3.org/2000/svg" xmlns:xlink="http://www.w3.org/1999/xlink" x="0px" y="0px"
	 viewBox="0 0 402.9 65.4" style="enable-background:new 0 0 402.9 65.4;" xml:space="preserve">
<style type="text/css">
	.st0{fill:#923B00;}
	.st1{enable-background:new    ;}
	.st2{fill:#FFFFFE;}
</style>
<rect id="Rectangle_3_copy" y="0" class="st0" width="402.9" height="65.4"/>
<g class="st1">
	<path class="st2" d="M31.9,20.8c2.3,0,4.1,0.5,5.6,1.6c1.4,1.1,2.1,2.4,2.1,4.1c0,2.3-1.1,3.9-3.4,4.9c2.7,0.9,4,2.5,4,5
		c0,1.9-0.7,3.4-2.2,4.6c-1.5,1.2-3.4,1.8-5.9,1.8c-2.2,0-4-0.3-5.5-0.9c-1.5-0.6-2.8-1.5-4-2.7l2.5-3.3c1.8,1.8,4.1,2.7,6.8,2.7
		c1,0,1.9-0.2,2.6-0.7c0.7-0.5,1-1.1,1-1.9c0-0.9-0.4-1.5-1.1-1.9c-0.8-0.4-1.8-0.6-3.1-0.6h-2.5v-3.9h2.4c2.5,0,3.8-0.8,3.8-2.5
		c0-0.7-0.3-1.3-0.9-1.7c-0.6-0.4-1.5-0.6-2.5-0.6c-2.3,0-4.2,0.8-5.8,2.3l-2.5-3C25.5,21.9,28.4,20.8,31.9,20.8z"/>
	<path class="st2" d="M48.4,42.7c-1.6,0-2.9-0.4-4-1.3s-1.6-2.1-1.6-3.7c0-1.7,0.6-3,1.8-3.9c1.2-0.9,2.8-1.3,4.8-1.3
		c1.4,0,2.7,0.2,4,0.7v-0.3c0-2-1.2-3-3.5-3c-1.4,0-2.9,0.3-4.5,0.9l-1.2-3.5c2-0.9,4.1-1.3,6.3-1.3c2.5,0,4.3,0.6,5.5,1.8
		c1.2,1.2,1.8,2.9,1.8,5.2v9.5h-4.5v-1.8C52,42.1,50.4,42.7,48.4,42.7z M49.8,39.6c1.1,0,1.9-0.3,2.6-0.8c0.7-0.5,1-1.2,1-2.1v-0.8
		c-0.9-0.4-1.9-0.6-3-0.6c-1,0-1.8,0.2-2.4,0.6c-0.6,0.4-0.8,1-0.8,1.7c0,0.6,0.2,1.1,0.7,1.4C48.4,39.4,49,39.6,49.8,39.6z"/>
	<path class="st2" d="M76.6,26.1v16.3h-4.6V30.1h-5.6v12.4h-4.6V26.1H76.6z"/>
	<path class="st2" d="M95.9,26.1v16.3h-4.5V33L85,42.4h-4.4V26.1h4.5v9.5l6.4-9.5H95.9z"/>
	<path class="st2" d="M107.7,42.8c-2.4,0-4.5-0.8-6.1-2.5c-1.6-1.6-2.4-3.7-2.4-6c0-2.4,0.8-4.4,2.4-6c1.6-1.7,3.7-2.5,6.1-2.5
		c2.6,0,4.8,1,6.5,2.9l-2.7,2.7c-1.1-1.1-2.4-1.6-3.8-1.6c-1.1,0-2.1,0.4-2.8,1.3s-1.1,1.9-1.1,3.2c0,1.3,0.4,2.3,1.1,3.2
		c0.8,0.9,1.8,1.3,3,1.3c1.3,0,2.5-0.6,3.7-1.7l2.7,2.7c-0.9,1-1.8,1.7-2.9,2.2C110.5,42.6,109.2,42.8,107.7,42.8z"/>
	<path class="st2" d="M122,42.7c-1.6,0-2.9-0.4-4-1.3s-1.6-2.1-1.6-3.7c0-1.7,0.6-3,1.8-3.9c1.2-0.9,2.8-1.3,4.8-1.3
		c1.4,0,2.7,0.2,4,0.7v-0.3c0-2-1.2-3-3.5-3c-1.4,0-2.9,0.3-4.5,0.9l-1.2-3.5c2-0.9,4.1-1.3,6.3-1.3c2.5,0,4.3,0.6,5.5,1.8
		c1.2,1.2,1.8,2.9,1.8,5.2v9.5h-4.5v-1.8C125.7,42.1,124.1,42.7,122,42.7z M123.4,39.6c1.1,0,1.9-0.3,2.6-0.8c0.7-0.5,1-1.2,1-2.1
		v-0.8c-0.9-0.4-1.9-0.6-3-0.6c-1,0-1.8,0.2-2.4,0.6c-0.6,0.4-0.8,1-0.8,1.7c0,0.6,0.2,1.1,0.7,1.4C122,39.4,122.7,39.6,123.4,39.6z
		"/>
	<path class="st2" d="M147.8,26.1v4H143v12.4h-4.7V30.1h-4.8v-4H147.8z"/>
	<path class="st2" d="M150.4,42.4V26.1h4.6v5.4h3.3c2,0,3.5,0.5,4.7,1.4c1.2,0.9,1.8,2.3,1.8,4c0,1.7-0.6,3.1-1.7,4.1
		s-2.6,1.5-4.6,1.5H150.4z M157.9,35H155v3.8h2.9c1.5,0,2.3-0.6,2.3-1.9c0-0.6-0.2-1-0.6-1.3C159.2,35.2,158.6,35,157.9,35z"/>
	<path class="st2" d="M175.2,42.8c-2.4,0-4.5-0.8-6.1-2.5c-1.6-1.6-2.4-3.7-2.4-6c0-2.4,0.8-4.4,2.4-6c1.6-1.7,3.7-2.5,6.1-2.5
		c2.6,0,4.8,1,6.5,2.9l-2.7,2.7c-1.1-1.1-2.4-1.6-3.8-1.6c-1.1,0-2.1,0.4-2.8,1.3s-1.1,1.9-1.1,3.2c0,1.3,0.4,2.3,1.1,3.2
		c0.8,0.9,1.8,1.3,3,1.3c1.3,0,2.5-0.6,3.7-1.7l2.7,2.7c-0.9,1-1.8,1.7-2.9,2.2C178,42.6,176.7,42.8,175.2,42.8z"/>
	<path class="st2" d="M199.3,26.1v16.3h-4.6v-5.2h-2.5l-3.4,5.2h-5.4l4.2-6c-2.3-0.9-3.4-2.5-3.4-4.9c0-1.7,0.6-3,1.7-4
		c1.2-1,2.8-1.5,4.9-1.5H199.3z M191.6,33.9h3.1v-4.1h-3.2c-0.9,0-1.5,0.2-2,0.5c-0.5,0.4-0.7,0.9-0.7,1.5c0,0.6,0.2,1.2,0.7,1.5
		C190,33.7,190.7,33.9,191.6,33.9z"/>
	<path class="st2" d="M227.8,26.1v16.3h-4.5V33l-6.4,9.5h-4.4V26.1h4.5v9.5l6.4-9.5H227.8z"/>
	<path class="st2" d="M255.3,40.3c-1.7,1.6-3.8,2.5-6.3,2.5c-2.5,0-4.6-0.8-6.3-2.4s-2.5-3.6-2.5-6c0-2.4,0.8-4.4,2.5-6
		c1.7-1.6,3.8-2.5,6.3-2.5c2.5,0,4.6,0.8,6.3,2.4c1.7,1.6,2.5,3.6,2.5,6C257.9,36.7,257,38.7,255.3,40.3z M249.1,38.8
		c1.3,0,2.3-0.4,3.1-1.3c0.8-0.9,1.2-1.9,1.2-3.2c0-1.2-0.4-2.3-1.2-3.2c-0.8-0.9-1.8-1.3-3.1-1.3c-1.3,0-2.3,0.4-3.1,1.3
		c-0.8,0.9-1.2,1.9-1.2,3.2c0,1.2,0.4,2.3,1.2,3.2C246.8,38.4,247.8,38.8,249.1,38.8z"/>
	<path class="st2" d="M276,26.1v16.3h-4.6V30.1h-5.6v12.4h-4.6V26.1H276z"/>
	<path class="st2" d="M282.1,26.1h13.1v16.3h-4.6V30.1h-4.1c0,2.2-0.1,4-0.2,5.4s-0.4,2.7-0.7,3.6c-0.3,0.9-0.7,1.7-1.2,2.2
		c-0.5,0.5-1.1,0.9-1.6,1c-0.6,0.2-1.3,0.3-2.2,0.3c-0.8,0-1.6-0.1-2.3-0.3l0.3-3.7c0.4,0.1,0.7,0.1,1,0.1c0.5,0,0.9-0.1,1.2-0.3
		c0.3-0.2,0.6-0.8,0.8-1.6c0.3-0.8,0.4-2.1,0.5-3.8C282.1,31.3,282.1,29,282.1,26.1z"/>
	<path class="st2" d="M304,42.7c-1.6,0-2.9-0.4-4-1.3s-1.6-2.1-1.6-3.7c0-1.7,0.6-3,1.8-3.9c1.2-0.9,2.8-1.3,4.8-1.3
		c1.4,0,2.7,0.2,4,0.7v-0.3c0-2-1.2-3-3.5-3c-1.4,0-2.9,0.3-4.5,0.9l-1.2-3.5c2-0.9,4.1-1.3,6.3-1.3c2.5,0,4.3,0.6,5.5,1.8
		c1.2,1.2,1.8,2.9,1.8,5.2v9.5h-4.5v-1.8C307.7,42.1,306,42.7,304,42.7z M305.4,39.6c1.1,0,1.9-0.3,2.6-0.8c0.7-0.5,1-1.2,1-2.1
		v-0.8c-0.9-0.4-1.9-0.6-3-0.6c-1,0-1.8,0.2-2.4,0.6c-0.6,0.4-0.8,1-0.8,1.7c0,0.6,0.2,1.1,0.7,1.4C304,39.4,304.6,39.6,305.4,39.6z
		"/>
	<path class="st2" d="M329.8,26.1v4H325v12.4h-4.7V30.1h-4.8v-4H329.8z"/>
	<path class="st2" d="M347.5,26.1v16.3h-4.5V33l-6.4,9.5h-4.4V26.1h4.5v9.5l6.4-9.5H347.5z"/>
	<path class="st2" d="M364.4,26.1v4h-4.8v12.4h-4.7V30.1h-4.8v-4H364.4z"/>
	<path class="st2" d="M366.9,42.4V26.1h4.6v5.4h3.3c2,0,3.5,0.5,4.7,1.4c1.2,0.9,1.8,2.3,1.8,4c0,1.7-0.6,3.1-1.7,4.1
		c-1.1,1-2.6,1.5-4.6,1.5H366.9z M374.5,35h-2.9v3.8h2.9c1.5,0,2.3-0.6,2.3-1.9c0-0.6-0.2-1-0.6-1.3C375.8,35.2,375.2,35,374.5,35z"
		/>
</g>
</svg>
