<?xml version="1.0" encoding="utf-8"?>
<!-- Generator: Adobe Illustrator 24.1.1, SVG Export Plug-In . SVG Version: 6.00 Build 0)  -->
<svg version="1.1" id="press" xmlns="http://www.w3.org/2000/svg" xmlns:xlink="http://www.w3.org/1999/xlink" x="0px" y="0px"
	 viewBox="0 0 577.4 75.3" style="enable-background:new 0 0 577.4 75.3;" xml:space="preserve">
<style type="text/css">
	.st0{fill-rule:evenodd;clip-rule:evenodd;fill:#923B00;}
	.st1{enable-background:new    ;}
	.st2{fill:#FFFFFE;}
</style>
<path id="Rectangle_3_copy" class="st0" d="M0,0h577.4v75.3H0V0z"/>
<g class="st1">
	<path class="st2" d="M49.6,24.4c3,0,5.4,0.7,7.3,2.1c1.9,1.4,2.8,3.2,2.8,5.4c0,3-1.5,5.1-4.5,6.4c3.5,1.1,5.2,3.3,5.2,6.6
		c0,2.4-1,4.5-2.9,6c-1.9,1.6-4.5,2.4-7.7,2.4c-2.8,0-5.2-0.4-7.2-1.2c-1.9-0.8-3.7-1.9-5.3-3.5l3.3-4.3c2.4,2.4,5.4,3.6,8.9,3.6
		c1.4,0,2.5-0.3,3.4-0.9c0.9-0.6,1.3-1.4,1.3-2.5c0-1.1-0.5-1.9-1.5-2.5c-1-0.5-2.3-0.8-4.1-0.8h-3.2v-5.1h3.2c3.3,0,5-1.1,5-3.2
		c0-1-0.4-1.7-1.2-2.3s-1.9-0.8-3.3-0.8c-3,0-5.6,1-7.5,3.1L38.3,29C41.3,25.9,45,24.4,49.6,24.4z"/>
	<path class="st2" d="M62.6,52.8l12-28.2h5.7l12,28.2h-6.4l-2.6-6.3H71.4l-2.6,6.3H62.6z M73.6,41.1H81l-3.7-9.1L73.6,41.1z"/>
	<path class="st2" d="M96.5,52.8v-28h11.4c3.3,0,5.9,0.9,7.8,2.7c1.9,1.8,2.9,4.1,2.9,7.1c0,3.1-1.1,5.5-3.2,7.2
		c-2.1,1.7-4.8,2.6-8.1,2.6h-4.7v8.4H96.5z M102.7,39h4.9c1.5,0,2.7-0.4,3.6-1.2c0.9-0.8,1.3-1.8,1.3-3.1c0-1.4-0.4-2.4-1.3-3.1
		c-0.9-0.7-2.1-1.1-3.7-1.1h-4.8V39z"/>
	<path class="st2" d="M123.2,52.8v-28h21.1v5.5h-15V36h13.2v5.5h-13.2v5.9h15.2v5.5H123.2z"/>
	<path class="st2" d="M156.1,30.4v22.4h-6.1v-28h19.5v5.6H156.1z"/>
	<path class="st2" d="M197.9,24.9v28h-6.1V34.5l-12.2,18.3h-5.8v-28h6.1v18.3l12.3-18.3H197.9z"/>
	<path class="st2" d="M217.7,53.3c-4.1,0-7.5-1.4-10.2-4.2c-2.7-2.8-4.1-6.2-4.1-10.3c0-4,1.4-7.5,4.1-10.3
		c2.7-2.8,6.2-4.2,10.5-4.2c2.4,0,4.5,0.4,6.1,1.2c1.7,0.8,3.2,1.9,4.7,3.4l-3.7,4.2c-1.2-1.1-2.3-1.9-3.4-2.4
		c-1.1-0.5-2.3-0.7-3.8-0.7c-2.3,0-4.3,0.8-5.8,2.5c-1.5,1.7-2.3,3.8-2.3,6.2c0,2.4,0.8,4.5,2.3,6.2c1.5,1.7,3.5,2.6,5.8,2.6
		c1.5,0,2.8-0.3,3.9-0.8c1.1-0.5,2.2-1.4,3.5-2.5l3.9,4.2c-1.5,1.6-3.2,2.8-4.9,3.6C222.5,52.9,220.3,53.3,217.7,53.3z"/>
	<path class="st2" d="M240.6,52.8V30.5h-8.5v-5.7h23.2v5.7h-8.5v22.3H240.6z"/>
	<path class="st2" d="M260,52.8v-28h11.4c3.3,0,5.9,0.9,7.8,2.7c1.9,1.8,2.9,4.1,2.9,7.1c0,3.1-1.1,5.5-3.2,7.2
		c-2.1,1.7-4.8,2.6-8.1,2.6h-4.7v8.4H260z M266.1,39h4.9c1.5,0,2.7-0.4,3.6-1.2c0.9-0.8,1.3-1.8,1.3-3.1c0-1.4-0.4-2.4-1.3-3.1
		c-0.9-0.7-2.1-1.1-3.7-1.1h-4.8V39z"/>
	<path class="st2" d="M310.7,24.9v28h-6.1V34.5l-12.2,18.3h-5.8v-28h6.1v18.3L305,24.9H310.7z"/>
	<path class="st2" d="M317.4,52.8v-28h11.4c3.3,0,5.9,0.9,7.8,2.7c1.9,1.8,2.9,4.1,2.9,7.1c0,3.1-1.1,5.5-3.2,7.2
		c-2.1,1.7-4.8,2.6-8.1,2.6h-4.7v8.4H317.4z M323.6,39h4.9c1.5,0,2.7-0.4,3.6-1.2s1.3-1.8,1.3-3.1c0-1.4-0.4-2.4-1.3-3.1
		c-0.9-0.7-2.1-1.1-3.7-1.1h-4.8V39z"/>
	<path class="st2" d="M368.3,49.1c-2.8,2.8-6.4,4.2-10.6,4.2s-7.8-1.4-10.6-4.2c-2.8-2.8-4.2-6.2-4.2-10.3c0-4,1.4-7.4,4.3-10.2
		s6.4-4.2,10.6-4.2c4.3,0,7.8,1.4,10.6,4.2c2.8,2.8,4.2,6.2,4.2,10.3C372.6,42.9,371.1,46.3,368.3,49.1z M351.7,45.1
		c1.6,1.7,3.6,2.6,6.1,2.6s4.5-0.8,6-2.5c1.6-1.7,2.4-3.8,2.4-6.2c0-2.4-0.8-4.5-2.4-6.2c-1.6-1.7-3.6-2.6-6.1-2.6s-4.5,0.8-6,2.5
		c-1.6,1.7-2.4,3.8-2.4,6.2C349.3,41.3,350.1,43.4,351.7,45.1z"/>
	<path class="st2" d="M378,52.8v-28h13c3.2,0,5.7,0.8,7.3,2.5c1.3,1.3,1.9,2.9,1.9,4.8c0,2.6-1.2,4.6-3.7,6c1.7,0.7,3,1.5,3.9,2.6
		c0.9,1.1,1.3,2.5,1.3,4.3c0,2.5-0.9,4.4-2.8,5.7c-1.9,1.3-4.4,2-7.7,2H378z M384,36.2h5.7c3,0,4.4-1,4.4-3c0-0.9-0.3-1.6-1-2.1
		c-0.7-0.5-1.7-0.7-3-0.7H384V36.2z M384,47.4h7.3c2.9,0,4.4-1,4.4-3.1c0-2-1.5-3-4.6-3H384V47.4z"/>
	<path class="st2" d="M403.7,52.8l12-28.2h5.7l12,28.2h-6.4l-2.6-6.3h-11.8l-2.6,6.3H403.7z M414.7,41.1h7.4l-3.7-9.1L414.7,41.1z"
		/>
	<path class="st2" d="M440.5,52.8V30.5H432v-5.7h23.2v5.7h-8.5v22.3H440.5z"/>
	<path class="st2" d="M459.9,52.8v-28h6.1v9.5h5.9c3.2,0,5.7,0.8,7.5,2.5c1.8,1.6,2.7,3.8,2.7,6.6c0,2.9-1,5.2-2.9,6.8
		c-1.9,1.7-4.5,2.5-7.8,2.5H459.9z M471.5,39.6H466v7.6h5.5c3.1,0,4.6-1.3,4.6-3.9C476.1,40.9,474.6,39.6,471.5,39.6z"/>
	<path class="st2" d="M500,53.3c-4.1,0-7.5-1.4-10.2-4.2s-4.1-6.2-4.1-10.3c0-4,1.4-7.5,4.1-10.3c2.7-2.8,6.2-4.2,10.5-4.2
		c2.4,0,4.5,0.4,6.1,1.2c1.7,0.8,3.2,1.9,4.7,3.4l-3.7,4.2c-1.2-1.1-2.3-1.9-3.4-2.4c-1.1-0.5-2.3-0.7-3.8-0.7
		c-2.3,0-4.3,0.8-5.8,2.5c-1.5,1.7-2.3,3.8-2.3,6.2c0,2.4,0.8,4.5,2.3,6.2c1.5,1.7,3.5,2.6,5.8,2.6c1.5,0,2.8-0.3,3.9-0.8
		c1.1-0.5,2.3-1.4,3.5-2.5l3.9,4.2c-1.5,1.6-3.2,2.8-4.9,3.6C504.8,52.9,502.6,53.3,500,53.3z"/>
	<path class="st2" d="M538.5,24.9v28h-6.1v-8.9h-4.8l-6,8.9h-7.2l6.8-10c-4-1.5-6-4.4-6-8.7c0-2.9,0.9-5.1,2.8-6.8s4.5-2.5,7.7-2.5
		H538.5z M526.1,38.4h6.2v-8h-6.1c-1.5,0-2.7,0.3-3.6,1c-0.9,0.7-1.3,1.7-1.3,3c0,1.2,0.4,2.2,1.3,2.9S524.7,38.4,526.1,38.4z"/>
</g>
</svg>
